<svg width="36" height="32" viewBox="0 0 36 32" fill="none" xmlns="http://www.w3.org/2000/svg">
<path d="M13.0944 0H20.2921C20.2921 0 13.953 11.3619 13.6367 11.8987C13.3203 12.4355 12.5969 12.5243 12.0391 12.2185L7.89528 9.94686C7.49683 9.72844 7.28711 8.72274 7.60345 8.15202C7.9198 7.5813 11.5576 1.14685 11.8064 0.720717C12.1227 0.178928 12.4843 0 13.0944 0Z" fill="#2E8842"/>
<path d="M20.28 0L17.241 5.4573L13.9078 0H20.28Z" fill="#1F7231"/>
<path d="M21.2506 9.74404L15.3708 0H22.9689C24.7314 -3.02078e-06 24.7088 0.0894639 25.3572 1.2525L28.2737 6.65069C28.2737 6.65069 28.4019 6.61585 28.6003 6.57336C28.7987 6.53087 28.8665 6.6427 28.8152 6.82162C28.772 6.97228 27.0603 11.9124 26.9353 12.3013C26.8103 12.6902 26.7877 12.6815 26.3583 12.5162C26.0009 12.3786 21.2182 10.6015 20.9976 10.512C20.777 10.4225 20.6189 10.3331 20.924 10.0534C21.2291 9.77366 21.2506 9.74404 21.2506 9.74404Z" fill="#4CBD65"/>
<path d="M35.7734 21.6096L32.2849 27.8397C32.2849 27.8397 25.3159 16.8428 24.9949 16.3087C24.6738 15.7745 24.8796 15.1055 25.4902 14.7355C26.0449 14.3993 29.111 12.5859 29.5143 12.3415C30.1048 11.9836 30.8791 12.3529 31.2302 12.9035C31.5813 13.4541 35.5047 19.7232 35.7607 20.1452C36.0862 20.6818 36.0691 21.0815 35.7734 21.6096Z" fill="#2E8842"/>
<path d="M32.2898 27.8292L28.9397 22.5522L35.3783 22.3136L32.2898 27.8292Z" fill="#1F7231"/>
<path d="M23.2077 23.9452L34.669 23.5812L30.9864 30.1579C30.1322 31.6834 30.0641 31.6205 28.722 31.6177L22.5376 31.5242C22.5376 31.5242 22.5063 31.6521 22.4477 31.8445C22.389 32.0368 22.2574 32.0413 22.1241 31.9101C22.0119 31.7997 18.4756 27.9223 18.1925 27.6255C17.9093 27.3287 17.928 27.3133 18.2821 27.0219C18.577 26.7792 22.4656 23.5013 22.6516 23.3538C22.8376 23.2062 22.9933 23.1127 23.0926 23.5124C23.192 23.9121 23.2077 23.9452 23.2077 23.9452Z" fill="#4CBD65"/>
<path d="M5.3418 30.4144L1.90041 24.1626C1.90041 24.1626 15.0117 24.2243 15.6392 24.2418C16.2667 24.2594 16.7045 24.8319 16.6998 25.4626L16.6649 30.1475C16.6615 30.5979 15.8573 31.2787 15.1997 31.2774C14.5421 31.2761 7.09408 31.1997 6.59704 31.1877C5.96512 31.1726 5.63351 30.9443 5.3418 30.4144Z" fill="#2E8842"/>
<path d="M1.90539 24.1705L8.19932 24.1929L4.94987 29.7045L1.90539 24.1705Z" fill="#1F7231"/>
<path d="M10.0785 18.6593L4.24931 28.4358L0.613727 21.8349C-0.229611 20.3037 -0.139445 20.2805 0.581877 19.16L3.97434 14.04C3.97434 14.04 3.88208 13.9453 3.74945 13.7933C3.61683 13.6413 3.68358 13.5288 3.86682 13.4876C4.02111 13.453 9.22183 12.5733 9.62661 12.4956C10.0314 12.4178 10.0345 12.4416 10.0933 12.8938C10.1423 13.2703 10.8545 18.2767 10.8807 18.5112C10.9069 18.7457 10.9032 18.926 10.5091 18.7949C10.1151 18.6639 10.0785 18.6593 10.0785 18.6593Z" fill="#4CBD65"/>
</svg>
